# xmcd CD database file
#
# Track frame offsets:
#	150
#	13092
#	32827
#	54917
#	66205
#	86415
#	105215
#	121580
#	137470
#	161977
#
# Disc length: 2374 seconds
#
# Revision: 0
# Processed by: cddbd v1.5.2PL0 Copyright (c) Steve Scherf et al.
# Submitted via: CDex 1.81
#
DISCID=7309440a
DTITLE=Joe Wilder (trump), Urbie Green (tromb), Tony Scott (clar), Zoot Sims (sax), Al Cohn (sax) - East Coast Sounds
DYEAR=1956
DGENRE=Jazz
TTITLE0=Treat me rough
TTITLE1=Looking at you
TTITLE2=Love me tomorrow (but leave me alone today)
TTITLE3=Trigger happy
TTITLE4=Tranquilizer
TTITLE5=I like the likes of you
TTITLE6=I wish I were in love again
TTITLE7=I don't want to be alone again
TTITLE8=Trigger Fantasy
TTITLE9=Where's that rainbow?
EXTD=YEAR: 1956
EXTT0=
EXTT1=
EXTT2=
EXTT3=
EXTT4=
EXTT5=
EXTT6=
EXTT7=
EXTT8=
EXTT9=
PLAYORDER=
